<svg width="541" height="530" viewBox="0 0 541 530" fill="none" xmlns="http://www.w3.org/2000/svg">
<g filter="url(#filter0_d_30_2)">
<path fill-rule="evenodd" clip-rule="evenodd" d="M483 185C483 214.328 470.374 240.708 450.262 259C470.374 277.292 483 303.672 483 333C483 388.228 438.228 433 383 433C374.915 433 367.054 432.041 359.525 430.229C348.002 472.735 309.152 504 263 504C216.495 504 177.404 472.255 166.216 429.252C157.563 431.694 148.434 433 139 433C83.7715 433 39 388.228 39 333C39 301.156 53.8842 272.789 77.0751 254.475C59.6935 236.485 49 211.991 49 185C49 129.772 93.7715 85 149 85C155.484 85 161.824 85.6171 167.965 86.7959C181.073 46.848 218.668 18 263 18C307.791 18 345.704 47.4481 358.434 88.0397C366.294 86.0546 374.524 85 383 85C438.228 85 483 129.772 483 185Z" fill="#1f2937" fill-opacity="0.92"/>
<rect x="99" y="141" width="64" height="240" fill="white"/>
<rect x="359" y="141" width="54" height="328" fill="white"/>
<rect x="53" y="98.5502" width="64" height="286.767" transform="rotate(-44.1147 53 98.5502)" fill="white"/>
<rect x="462.423" y="54" width="64" height="274.681" transform="rotate(51.6528 462.423 54)" fill="white"/>
</g>
<defs>
<filter id="filter0_d_30_2" x="0" y="0" width="541" height="530" filterUnits="userSpaceOnUse" color-interpolation-filters="sRGB">
<feFlood flood-opacity="0" result="BackgroundImageFix"/>
<feColorMatrix in="SourceAlpha" type="matrix" values="0 0 0 0 0 0 0 0 0 0 0 0 0 0 0 0 0 0 127 0" result="hardAlpha"/>
<feOffset dy="4"/>
<feGaussianBlur stdDeviation="2"/>
<feComposite in2="hardAlpha" operator="out"/>
<feColorMatrix type="matrix" values="0 0 0 0 0 0 0 0 0 0 0 0 0 0 0 0 0 0 0.25 0"/>
<feBlend mode="normal" in2="BackgroundImageFix" result="effect1_dropShadow_30_2"/>
<feBlend mode="normal" in="SourceGraphic" in2="effect1_dropShadow_30_2" result="shape"/>
</filter>
</defs>
</svg>
