<svg width="540" height="540" viewBox="0 0 540 540" fill="none">
<g filter="url(#filter0_d_30_2)">
<path fill-rule="evenodd" clip-rule="evenodd" d="M483 185C483 214 470 241 450 259C470 277 483 304 483 333C483 388 438 433 383 433C375 433 367 432 360 430.229C348 473 310 504 263 504C216 504 177 472 166.216 429.252C157.563 431.694 148.434 433 139 433C83.7715 433 39 388.228 39 333C39 301.156 53.8842 272.789 77.0751 254.475C59.6935 236.485 49 211.991 49 185C49 129.772 93.7715 85 149 85C155.484 85 161.824 85.6171 167.965 86.7959C181.073 46.848 218.668 18 263 18C307.791 18 345.704 47.4481 358.434 88.0397C366.294 86.0546 374.524 85 383 85C438.228 85 483 129 483 185Z" fill="#1f2937" fill-opacity="0.92"/>
<rect x="100" y="150" width="64" height="240" fill="white"/>
<rect x="360" y="150" width="64" height="300" fill="white"/>
<rect x="64" y="100" width="64" height="300" transform="rotate(-45 54 100)" fill="white"/>
<rect x="460" y="64" width="64" height="300" transform="rotate(54 460 54)" fill="white"/>
</g>
<defs>
<filter id="filter0_d_30_2" x="0" y="0" width="540" height="540" filterUnits="userSpaceOnUse" color-interpolation-filters="sRGB">
<feBlend mode="normal" in="SourceGraphic" in2="effect1_dropShadow_30_2" result="shape"/>
</filter>
</defs>
</svg>
